<svg width="20" id="icon" height="21" viewBox="0 0 20 21" xmlns="http://www.w3.org/2000/svg">
<path d="M17.5 16.2194H4.16667V2.8861C4.16667 2.66508 4.07887 2.45312 3.92259 2.29684C3.76631 2.14056 3.55435 2.05276 3.33333 2.05276C3.11232 2.05276 2.90036 2.14056 2.74408 2.29684C2.5878 2.45312 2.5 2.66508 2.5 2.8861V17.0528C2.5 17.2738 2.5878 17.4857 2.74408 17.642C2.90036 17.7983 3.11232 17.8861 3.33333 17.8861H17.5C17.721 17.8861 17.933 17.7983 18.0893 17.642C18.2455 17.4857 18.3333 17.2738 18.3333 17.0528C18.3333 16.8318 18.2455 16.6198 18.0893 16.4635C17.933 16.3072 17.721 16.2194 17.5 16.2194Z" />
<path d="M5.83337 9.55278V13.7194C5.83337 13.9405 5.92117 14.1524 6.07745 14.3087C6.23373 14.465 6.44569 14.5528 6.66671 14.5528C6.88772 14.5528 7.09968 14.465 7.25596 14.3087C7.41224 14.1524 7.50004 13.9405 7.50004 13.7194V9.55278C7.50004 9.33177 7.41224 9.11981 7.25596 8.96353C7.09968 8.80725 6.88772 8.71945 6.66671 8.71945C6.44569 8.71945 6.23373 8.80725 6.07745 8.96353C5.92117 9.11981 5.83337 9.33177 5.83337 9.55278Z"/>
<path d="M9.16663 5.3861V13.7194C9.16663 13.9404 9.25442 14.1524 9.4107 14.3087C9.56698 14.465 9.77895 14.5528 9.99996 14.5528C10.221 14.5528 10.4329 14.465 10.5892 14.3087C10.7455 14.1524 10.8333 13.9404 10.8333 13.7194V5.3861C10.8333 5.16508 10.7455 4.95312 10.5892 4.79684C10.4329 4.64056 10.221 4.55276 9.99996 4.55276C9.77895 4.55276 9.56698 4.64056 9.4107 4.79684C9.25442 4.95312 9.16663 5.16508 9.16663 5.3861Z"/>
<path d="M12.5 7.05278V13.7194C12.5 13.9405 12.5878 14.1524 12.7441 14.3087C12.9004 14.465 13.1123 14.5528 13.3333 14.5528C13.5543 14.5528 13.7663 14.465 13.9226 14.3087C14.0789 14.1524 14.1667 13.9405 14.1667 13.7194V7.05278C14.1667 6.83177 14.0789 6.61981 13.9226 6.46353C13.7663 6.30725 13.5543 6.21945 13.3333 6.21945C13.1123 6.21945 12.9004 6.30725 12.7441 6.46353C12.5878 6.61981 12.5 6.83177 12.5 7.05278Z"/>
<path d="M15.8334 2.8861V13.7194C15.8334 13.9404 15.9212 14.1524 16.0775 14.3087C16.2337 14.465 16.4457 14.5528 16.6667 14.5528C16.8877 14.5528 17.0997 14.465 17.256 14.3087C17.4122 14.1524 17.5 13.9404 17.5 13.7194V2.8861C17.5 2.66508 17.4122 2.45312 17.256 2.29684C17.0997 2.14056 16.8877 2.05276 16.6667 2.05276C16.4457 2.05276 16.2337 2.14056 16.0775 2.29684C15.9212 2.45312 15.8334 2.66508 15.8334 2.8861Z"/>
</svg>
