<svg width="20" id="icon" height="21" viewBox="0 0 20 21" xmlns="http://www.w3.org/2000/svg">
<path d="M15.9916 14.3111C16.4243 13.7946 16.6631 13.1432 16.6666 12.4694C16.6666 11.6959 16.3593 10.954 15.8124 10.407C15.2654 9.86007 14.5235 9.55278 13.75 9.55278H13.5166C14.2039 8.7361 14.5815 7.70347 14.5833 6.63611C14.5852 5.86657 14.3934 5.10892 14.0254 4.43304C13.6575 3.75717 13.1253 3.18481 12.4779 2.76877C11.8305 2.35273 11.0888 2.10639 10.3211 2.05247C9.55347 1.99854 8.7846 2.13878 8.08541 2.46023C7.38622 2.78169 6.77922 3.27402 6.3204 3.89183C5.86158 4.50963 5.56569 5.23302 5.46004 5.99528C5.35439 6.75753 5.44237 7.53413 5.71586 8.25343C5.98935 8.97274 6.43956 9.6116 7.02496 10.1111C5.45018 10.713 4.09498 11.7783 3.13831 13.1664C2.18164 14.5546 1.66849 16.2002 1.66663 17.8861C1.66663 18.1071 1.75442 18.3191 1.9107 18.4754C2.06698 18.6316 2.27895 18.7194 2.49996 18.7194C2.72097 18.7194 2.93293 18.6316 3.08922 18.4754C3.2455 18.3191 3.33329 18.1071 3.33329 17.8861C3.33329 16.118 4.03567 14.4223 5.28591 13.1721C6.53616 11.9218 8.23185 11.2194 9.99996 11.2194H11.125C10.8809 11.7161 10.7871 12.2733 10.8552 12.8225C10.9233 13.3717 11.1503 13.8891 11.5083 14.3111C10.7984 14.7082 10.2071 15.2874 9.79553 15.989C9.38393 16.6906 9.16684 17.4893 9.16663 18.3028C9.16663 18.5238 9.25442 18.7358 9.4107 18.892C9.56698 19.0483 9.77895 19.1361 9.99996 19.1361C10.221 19.1361 10.4329 19.0483 10.5892 18.892C10.7455 18.7358 10.8333 18.5238 10.8333 18.3028C10.8333 17.5292 11.1406 16.7874 11.6876 16.2404C12.2345 15.6934 12.9764 15.3861 13.75 15.3861C14.5235 15.3861 15.2654 15.6934 15.8124 16.2404C16.3593 16.7874 16.6666 17.5292 16.6666 18.3028C16.6666 18.5238 16.7544 18.7358 16.9107 18.892C17.067 19.0483 17.2789 19.1361 17.5 19.1361C17.721 19.1361 17.9329 19.0483 18.0892 18.892C18.2455 18.7358 18.3333 18.5238 18.3333 18.3028C18.3331 17.4893 18.116 16.6906 17.7044 15.989C17.2928 15.2874 16.7016 14.7082 15.9916 14.3111V14.3111ZM9.99996 9.55278C9.4231 9.55278 8.85919 9.38172 8.37955 9.06123C7.8999 8.74074 7.52607 8.28522 7.30531 7.75227C7.08456 7.21932 7.0268 6.63288 7.13934 6.0671C7.25188 5.50132 7.52966 4.98162 7.93756 4.57372C8.34547 4.16581 8.86517 3.88803 9.43095 3.77549C9.99672 3.66295 10.5832 3.72071 11.1161 3.94146C11.6491 4.16222 12.1046 4.53606 12.4251 5.0157C12.7456 5.49534 12.9166 6.05925 12.9166 6.63611C12.9166 7.40966 12.6093 8.15152 12.0624 8.69851C11.5154 9.24549 10.7735 9.55278 9.99996 9.55278V9.55278ZM13.75 13.7194C13.4184 13.7194 13.1005 13.5877 12.8661 13.3533C12.6317 13.1189 12.5 12.801 12.5 12.4694C12.5021 12.1386 12.6345 11.8219 12.8685 11.588C13.1024 11.354 13.4191 11.2216 13.75 11.2194C14.0815 11.2194 14.3994 11.3511 14.6338 11.5856C14.8683 11.82 15 12.1379 15 12.4694C15 12.801 14.8683 13.1189 14.6338 13.3533C14.3994 13.5877 14.0815 13.7194 13.75 13.7194Z" fill="#00B074"/>
</svg>
