<svg width="20" id="icon" height="21" viewBox="0 0 20 21" xmlns="http://www.w3.org/2000/svg">
<path d="M2.5 7.05257V17.0526C2.5 17.2736 2.5878 17.4855 2.74408 17.6418C2.90036 17.7981 3.11232 17.8859 3.33333 17.8859H7.5C7.72101 17.8859 7.93297 17.7981 8.08925 17.6418C8.24554 17.4855 8.33333 17.2736 8.33333 17.0526V11.2192H11.6667V17.0526C11.6667 17.2736 11.7545 17.4855 11.9107 17.6418C12.067 17.7981 12.279 17.8859 12.5 17.8859H16.6667C16.8877 17.8859 17.0996 17.7981 17.2559 17.6418C17.4122 17.4855 17.5 17.2736 17.5 17.0526V7.05257C17.5 6.9232 17.4699 6.79561 17.412 6.67989C17.3542 6.56418 17.2702 6.46353 17.1667 6.38591L10.5 1.38591C10.3558 1.27772 10.1803 1.21924 10 1.21924C9.81969 1.21924 9.64425 1.27772 9.5 1.38591L2.83333 6.38591C2.72984 6.46353 2.64583 6.56418 2.58798 6.67989C2.53012 6.79561 2.5 6.9232 2.5 7.05257ZM4.16667 7.46924L10 3.09424L15.8333 7.46924V16.2192H13.3333V10.3859C13.3333 10.1649 13.2455 9.95293 13.0893 9.79665C12.933 9.64037 12.721 9.55257 12.5 9.55257H7.5C7.27899 9.55257 7.06702 9.64037 6.91074 9.79665C6.75446 9.95293 6.66667 10.1649 6.66667 10.3859V16.2192H4.16667V7.46924Z" />
</svg>
