<svg width="20" id="icon" height="21" viewBox="0 0 20 21" xmlns="http://www.w3.org/2000/svg">
<path d="M12.975 10.1109C13.688 9.50251 14.1974 8.69007 14.4344 7.78316C14.6714 6.87626 14.6246 5.91849 14.3004 5.03899C13.9761 4.15949 13.39 3.40055 12.6211 2.86448C11.8521 2.32842 10.9373 2.04102 9.99996 2.04102C9.0626 2.04102 8.14777 2.32842 7.37882 2.86448C6.60987 3.40055 6.02377 4.15949 5.69954 5.03899C5.37531 5.91849 5.32854 6.87626 5.56554 7.78316C5.80253 8.69007 6.3119 9.50251 7.02496 10.1109C5.45018 10.7128 4.09498 11.7781 3.13831 13.1663C2.18164 14.5544 1.66849 16.2001 1.66663 17.8859C1.66663 18.107 1.75442 18.3189 1.9107 18.4752C2.06698 18.6315 2.27895 18.7193 2.49996 18.7193C2.72097 18.7193 2.93293 18.6315 3.08922 18.4752C3.2455 18.3189 3.33329 18.107 3.33329 17.8859C3.33329 16.1178 4.03567 14.4221 5.28591 13.1719C6.53616 11.9217 8.23185 11.2193 9.99996 11.2193C11.7681 11.2193 13.4638 11.9217 14.714 13.1719C15.9642 14.4221 16.6666 16.1178 16.6666 17.8859C16.6666 18.107 16.7544 18.3189 16.9107 18.4752C17.067 18.6315 17.2789 18.7193 17.5 18.7193C17.721 18.7193 17.9329 18.6315 18.0892 18.4752C18.2455 18.3189 18.3333 18.107 18.3333 17.8859C18.3314 16.2001 17.8183 14.5544 16.8616 13.1663C15.9049 11.7781 14.5497 10.7128 12.975 10.1109ZM9.99996 9.55261C9.4231 9.55261 8.85919 9.38155 8.37955 9.06106C7.8999 8.74057 7.52607 8.28505 7.30531 7.7521C7.08456 7.21915 7.0268 6.63271 7.13934 6.06693C7.25188 5.50115 7.52966 4.98145 7.93757 4.57355C8.34547 4.16564 8.86517 3.88786 9.43095 3.77532C9.99673 3.66278 10.5832 3.72054 11.1161 3.94129C11.6491 4.16205 12.1046 4.53588 12.4251 5.01553C12.7456 5.49517 12.9166 6.05908 12.9166 6.63594C12.9166 7.40949 12.6093 8.15135 12.0624 8.69834C11.5154 9.24532 10.7735 9.55261 9.99996 9.55261Z"/>
</svg>
