<svg width="228" id="icon" height="48" viewBox="0 0 228 48" fill="none" xmlns="http://www.w3.org/2000/svg">
<g filter="url(#filter0_d_128_806)">
<path d="M34.16 5.12663V38.8226H25.952V24.9506H13.184V38.8226H4.976V5.12663H13.184V18.3266H25.952V5.12663H34.16ZM44.2134 9.25463C42.7734 9.25463 41.5894 8.83863 40.6614 8.00663C39.7654 7.14263 39.3174 6.08663 39.3174 4.83863C39.3174 3.55863 39.7654 2.50263 40.6614 1.67063C41.5894 0.806629 42.7734 0.374629 44.2134 0.374629C45.6214 0.374629 46.7734 0.806629 47.6694 1.67063C48.5974 2.50263 49.0614 3.55863 49.0614 4.83863C49.0614 6.08663 48.5974 7.14263 47.6694 8.00663C46.7734 8.83863 45.6214 9.25463 44.2134 9.25463ZM48.2934 12.0386V38.8226H40.0854V12.0386H48.2934ZM52.8496 21.9266C52.8496 18.5986 53.5696 15.6386 55.0096 13.0466C56.4496 10.4226 58.4496 8.39063 61.0096 6.95063C63.6016 5.47863 66.5296 4.74263 69.7936 4.74263C73.7936 4.74263 77.2176 5.79863 80.0656 7.91063C82.9136 10.0226 84.8176 12.9026 85.7776 16.5506H76.7536C76.0816 15.1426 75.1216 14.0706 73.8736 13.3346C72.6576 12.5986 71.2656 12.2306 69.6976 12.2306C67.1696 12.2306 65.1216 13.1106 63.5536 14.8706C61.9856 16.6306 61.2016 18.9826 61.2016 21.9266C61.2016 24.8706 61.9856 27.2226 63.5536 28.9826C65.1216 30.7426 67.1696 31.6226 69.6976 31.6226C71.2656 31.6226 72.6576 31.2546 73.8736 30.5186C75.1216 29.7826 76.0816 28.7106 76.7536 27.3026H85.7776C84.8176 30.9506 82.9136 33.8306 80.0656 35.9426C77.2176 38.0226 73.7936 39.0626 69.7936 39.0626C66.5296 39.0626 63.6016 38.3426 61.0096 36.9026C58.4496 35.4306 56.4496 33.3986 55.0096 30.8066C53.5696 28.2146 52.8496 25.2546 52.8496 21.9266ZM102.996 39.2066C100.372 39.2066 98.0041 38.6466 95.8921 37.5266C93.8121 36.4066 92.1641 34.8066 90.9481 32.7266C89.7641 30.6466 89.1721 28.2146 89.1721 25.4306C89.1721 22.6786 89.7801 20.2626 90.9961 18.1826C92.2121 16.0706 93.8761 14.4546 95.9881 13.3346C98.1001 12.2146 100.468 11.6546 103.092 11.6546C105.716 11.6546 108.084 12.2146 110.196 13.3346C112.308 14.4546 113.972 16.0706 115.188 18.1826C116.404 20.2626 117.012 22.6786 117.012 25.4306C117.012 28.1826 116.388 30.6146 115.14 32.7266C113.924 34.8066 112.244 36.4066 110.1 37.5266C107.988 38.6466 105.62 39.2066 102.996 39.2066ZM102.996 32.1026C104.564 32.1026 105.892 31.5266 106.98 30.3746C108.1 29.2226 108.66 27.5746 108.66 25.4306C108.66 23.2866 108.116 21.6386 107.028 20.4866C105.972 19.3346 104.66 18.7586 103.092 18.7586C101.492 18.7586 100.164 19.3346 99.1081 20.4866C98.0521 21.6066 97.5241 23.2546 97.5241 25.4306C97.5241 27.5746 98.0361 29.2226 99.0601 30.3746C100.116 31.5266 101.428 32.1026 102.996 32.1026ZM134.807 18.8546H130.391V38.8226H122.183V18.8546H119.207V12.0386H122.183V11.2706C122.183 7.97463 123.127 5.47863 125.015 3.78263C126.903 2.05463 129.671 1.19063 133.319 1.19063C133.927 1.19063 134.375 1.20663 134.663 1.23863V8.19863C133.095 8.10263 131.991 8.32663 131.351 8.87063C130.711 9.41463 130.391 10.3906 130.391 11.7986V12.0386H134.807V18.8546ZM152.104 18.8546H147.688V38.8226H139.48V18.8546H136.504V12.0386H139.48V11.2706C139.48 7.97463 140.424 5.47863 142.312 3.78263C144.2 2.05463 146.968 1.19063 150.616 1.19063C151.224 1.19063 151.672 1.20663 151.96 1.23863V8.19863C150.392 8.10263 149.288 8.32663 148.648 8.87063C148.008 9.41463 147.688 10.3906 147.688 11.7986V12.0386H152.104V18.8546ZM181.208 24.9986C181.208 25.7666 181.16 26.5666 181.064 27.3986H162.488C162.616 29.0626 163.144 30.3426 164.072 31.2386C165.032 32.1026 166.2 32.5346 167.576 32.5346C169.624 32.5346 171.048 31.6706 171.848 29.9426H180.584C180.136 31.7026 179.32 33.2866 178.136 34.6946C176.984 36.1026 175.528 37.2066 173.768 38.0066C172.008 38.8066 170.04 39.2066 167.864 39.2066C165.24 39.2066 162.904 38.6466 160.856 37.5266C158.808 36.4066 157.208 34.8066 156.056 32.7266C154.904 30.6466 154.328 28.2146 154.328 25.4306C154.328 22.6466 154.888 20.2146 156.008 18.1346C157.16 16.0546 158.76 14.4546 160.808 13.3346C162.856 12.2146 165.208 11.6546 167.864 11.6546C170.456 11.6546 172.76 12.1986 174.776 13.2866C176.792 14.3746 178.36 15.9266 179.48 17.9426C180.632 19.9586 181.208 22.3106 181.208 24.9986ZM172.808 22.8386C172.808 21.4306 172.328 20.3106 171.368 19.4786C170.408 18.6466 169.208 18.2306 167.768 18.2306C166.392 18.2306 165.224 18.6306 164.264 19.4306C163.336 20.2306 162.76 21.3666 162.536 22.8386H172.808ZM210.786 24.9986C210.786 25.7666 210.739 26.5666 210.643 27.3986H192.067C192.195 29.0626 192.723 30.3426 193.651 31.2386C194.611 32.1026 195.779 32.5346 197.155 32.5346C199.203 32.5346 200.627 31.6706 201.427 29.9426H210.163C209.715 31.7026 208.899 33.2866 207.715 34.6946C206.563 36.1026 205.107 37.2066 203.347 38.0066C201.587 38.8066 199.619 39.2066 197.443 39.2066C194.819 39.2066 192.483 38.6466 190.435 37.5266C188.387 36.4066 186.787 34.8066 185.635 32.7266C184.483 30.6466 183.907 28.2146 183.907 25.4306C183.907 22.6466 184.467 20.2146 185.587 18.1346C186.739 16.0546 188.339 14.4546 190.387 13.3346C192.435 12.2146 194.787 11.6546 197.443 11.6546C200.035 11.6546 202.339 12.1986 204.355 13.2866C206.371 14.3746 207.939 15.9266 209.059 17.9426C210.211 19.9586 210.786 22.3106 210.786 24.9986ZM202.387 22.8386C202.387 21.4306 201.907 20.3106 200.947 19.4786C199.987 18.6466 198.787 18.2306 197.347 18.2306C195.971 18.2306 194.803 18.6306 193.843 19.4306C192.915 20.2306 192.339 21.3666 192.115 22.8386H202.387Z" fill="#333333"/>
<path d="M218.957 39.2066C217.517 39.2066 216.333 38.7906 215.405 37.9586C214.509 37.0946 214.061 36.0386 214.061 34.7906C214.061 33.5106 214.509 32.4386 215.405 31.5746C216.333 30.7106 217.517 30.2786 218.957 30.2786C220.365 30.2786 221.517 30.7106 222.413 31.5746C223.341 32.4386 223.805 33.5106 223.805 34.7906C223.805 36.0386 223.341 37.0946 222.413 37.9586C221.517 38.7906 220.365 39.2066 218.957 39.2066Z" fill="#00B074"/>
</g>
<defs>
<filter id="filter0_d_128_806" x="0.976013" y="0.374634" width="226.829" height="46.832" filterUnits="userSpaceOnUse" color-interpolation-filters="sRGB">
<feFlood flood-opacity="0" result="BackgroundImageFix"/>
<feColorMatrix in="SourceAlpha" type="matrix" values="0 0 0 0 0 0 0 0 0 0 0 0 0 0 0 0 0 0 127 0" result="hardAlpha"/>
<feOffset dy="4"/>
<feGaussianBlur stdDeviation="2"/>
<feComposite in2="hardAlpha" operator="out"/>
<feColorMatrix type="matrix" values="0 0 0 0 0 0 0 0 0 0 0 0 0 0 0 0 0 0 0.25 0"/>
<feBlend mode="normal" in2="BackgroundImageFix" result="effect1_dropShadow_128_806"/>
<feBlend mode="normal" in="SourceGraphic" in2="effect1_dropShadow_128_806" result="shape"/>
</filter>
</defs>
</svg>
