<svg width="20" id="icon" height="21" viewBox="0 0 20 21" xmlns="http://www.w3.org/2000/svg">
<path d="M17.5002 4.55277H2.5002C2.02798 4.55277 1.66687 4.19166 1.66687 3.71944C1.66687 3.24722 2.02798 2.88611 2.5002 2.88611H17.5002C17.9724 2.88611 18.3335 3.24722 18.3335 3.71944C18.3335 4.19166 17.9724 4.55277 17.5002 4.55277Z" />
<path d="M12.5002 8.99717H2.5002C2.02798 8.99717 1.66687 8.63606 1.66687 8.16384C1.66687 7.69162 2.02798 7.33051 2.5002 7.33051H12.5002C12.9724 7.33051 13.3335 7.69162 13.3335 8.16384C13.3335 8.63606 12.9724 8.99717 12.5002 8.99717Z" />
<path d="M17.5002 13.4416H2.5002C2.02798 13.4416 1.66687 13.0805 1.66687 12.6083C1.66687 12.1361 2.02798 11.775 2.5002 11.775H17.5002C17.9724 11.775 18.3335 12.1361 18.3335 12.6083C18.3335 13.0805 17.9724 13.4416 17.5002 13.4416Z"/>
<path d="M12.5002 17.886H2.5002C2.02798 17.886 1.66687 17.5249 1.66687 17.0527C1.66687 16.5805 2.02798 16.2194 2.5002 16.2194H12.5002C12.9724 16.2194 13.3335 16.5805 13.3335 17.0527C13.3335 17.5249 12.9724 17.886 12.5002 17.886Z" />
</svg>
