<svg width="20" id="icon" height="21" viewBox="0 0 20 21" xmlns="http://www.w3.org/2000/svg">
<path d="M16.875 7.26111H16.0032L16.1094 6.1973C16.1354 5.93666 16.1066 5.67347 16.0246 5.42469C15.9427 5.1759 15.8096 4.94704 15.6338 4.75285C15.458 4.55866 15.2435 4.40345 15.0041 4.29722C14.7647 4.191 14.5057 4.13611 14.2437 4.13611H4.50625C4.24427 4.13613 3.9852 4.19104 3.74573 4.2973C3.50627 4.40357 3.29173 4.55882 3.11594 4.75307C2.94015 4.94731 2.80701 5.17624 2.7251 5.42508C2.64319 5.67393 2.61433 5.93718 2.64037 6.19786L3.4963 15.758C3.51309 15.9079 3.48018 15.5969 3.59993 16.1968H1.73055C1.56479 16.1968 1.40582 16.2626 1.28861 16.3798C1.1714 16.4971 1.10555 16.656 1.10555 16.8218C1.10555 16.9875 1.1714 17.1465 1.28861 17.2637C1.40582 17.3809 1.56479 17.4468 1.73055 17.4468L17 17.6361C17.1658 17.6361 17.3247 17.5703 17.4419 17.4531C17.5591 17.3358 17.625 17.1769 17.625 17.0111C17.625 16.8453 17.5591 16.6864 17.4419 16.5692C17.3247 16.452 17.1658 16.3861 17 16.3861H15.1307C15.1827 16.2447 15.2175 16.0976 15.2342 15.9479L15.4405 12.8861H16.875C17.3721 12.8856 17.8487 12.6878 18.2002 12.3363C18.5517 11.9848 18.7495 11.5082 18.75 11.0111V9.13611C18.7495 8.639 18.5517 8.1624 18.2002 7.81089C17.8487 7.45937 17.3721 7.26165 16.875 7.26111ZM5.66128 16.1968C5.50625 16.1973 5.3566 16.1399 5.24167 16.0359C5.12673 15.9318 5.05478 15.7886 5.03991 15.6343L4.13784 6.22593C4.12913 6.139 4.13874 6.05121 4.16603 5.96821C4.19332 5.88521 4.23769 5.80886 4.29629 5.74405C4.35489 5.67925 4.42641 5.62744 4.50625 5.59196C4.58608 5.55648 4.67247 5.53812 4.75984 5.53805L14.0204 5.59196C14.1077 5.59202 14.1941 5.61037 14.2739 5.64582C14.3537 5.68127 14.4252 5.73305 14.4838 5.79781C14.5424 5.86258 14.5868 5.93889 14.6141 6.02185C14.6414 6.1048 14.6511 6.19256 14.6424 6.27946L14.0204 15.6349C14.0054 15.7892 13.9334 15.9323 13.8184 16.0362C13.7034 16.1401 13.5538 16.1974 13.3988 16.1968H5.66128ZM17.5 11.0111C17.4999 11.1768 17.434 11.3358 17.3168 11.4529C17.1996 11.5701 17.0407 11.636 16.875 11.6361H15.5656L15.8781 8.51111H16.875C17.0407 8.51121 17.1996 8.57709 17.3168 8.69428C17.434 8.81147 17.4999 8.97038 17.5 9.13611V11.0111Z"/>
</svg>
