<svg width="60" height="44" viewBox="0 0 60 44" fill="none" xmlns="http://www.w3.org/2000/svg">
<path d="M6.65186 43.2747C9.81873 43.2747 12.4063 40.6627 12.4063 37.466V0.0410156H46.0061V37.466C46.0061 40.6627 43.4185 43.2747 40.2516 43.2747" fill="#00B074"/>
<path d="M34.4972 37.4659V33.0607H0.897461V37.4659C0.897461 40.6626 3.48503 43.2746 6.65191 43.2746H40.2517C37.0848 43.2746 34.4972 40.6626 34.4972 37.4659Z" fill="#0A5239"/>
<path d="M22.718 7.48682H18.4312V9.35807H22.718V7.48682Z" fill="white"/>
<path d="M39.2089 7.48682H26.0393V9.35807H39.2089V7.48682Z" fill="#F7C604"/>
<path d="M22.718 14.1141H18.4312V15.9854H22.718V14.1141Z" fill="white"/>
<path d="M39.2089 14.1141H26.0393V15.9854H39.2089V14.1141Z" fill="#F7C604"/>
<path d="M22.718 20.7417H18.4312V22.6129H22.718V20.7417Z" fill="white"/>
<path d="M39.2089 20.7417H26.0393V22.6129H39.2089V20.7417Z" fill="#F7C604"/>
<path d="M22.718 27.369H18.4312V29.2403H22.718V27.369Z" fill="white"/>
<path d="M39.2089 27.369H26.0393V29.2403H39.2089V27.369Z" fill="#F7C604"/>
<path opacity="0.1" d="M46.006 27.681V5.42091C45.5426 5.34294 45.0405 5.30396 44.5385 5.30396C38.3978 5.30396 33.4158 10.3329 33.4158 16.5315C33.4158 22.73 38.3978 27.7589 44.5385 27.7589C45.0405 27.7979 45.5426 27.759 46.006 27.681Z" fill="#0C1E5B"/>
<path d="M48.4399 25.5371C54.5829 25.5371 59.5627 20.5103 59.5627 14.3095C59.5627 8.10862 54.5829 3.08185 48.4399 3.08185C42.297 3.08185 37.3171 8.10862 37.3171 14.3095C37.3171 20.5103 42.297 25.5371 48.4399 25.5371Z" fill="#FF5B5B"/>
<path d="M50.409 15.0889V8.11072H46.4697V15.0889H43.8435L48.4393 20.5077L53.0352 15.0889H50.409Z" fill="white"/>
</svg>
