<svg width="60" height="54" viewBox="0 0 60 54" fill="none" xmlns="http://www.w3.org/2000/svg">
<path d="M29.7134 11.9521C29.1197 11.9521 28.6532 11.4818 28.6532 10.8832V8.18958C28.6532 5.28219 26.3207 2.93063 23.4793 2.93063C22.0798 2.93063 20.8076 3.48645 19.7897 4.46983C18.7719 5.45322 18.263 6.77864 18.263 8.18958V10.8832C18.263 11.4818 17.7965 11.9521 17.2028 11.9521C16.6091 11.9521 16.1426 11.4818 16.1426 10.8832V8.18958C16.1426 6.22282 16.9059 4.38432 18.263 2.97339C19.6625 1.56245 21.4861 0.792847 23.4369 0.792847C27.4658 0.792847 30.7313 4.08503 30.7313 8.14682V10.8404C30.7737 11.4818 30.3072 11.9521 29.7134 11.9521Z" fill="#FFD497"/>
<path d="M46.3801 47.9952H15.4639L10.3324 8.0614H44.2172L46.3801 47.9952Z" fill="#00B074"/>
<path d="M15.4637 47.9952L8.127 46.7125L0.747818 47.9952L2.95309 8.0614H13.2585L15.4637 47.9952Z" fill="#0A5239"/>
<path d="M28.9075 21.8287C24.8786 21.8287 21.6131 18.5365 21.6131 14.4747V11.7811C21.6131 11.1825 22.0796 10.7122 22.6733 10.7122C23.267 10.7122 23.7335 11.1825 23.7335 11.7811V14.4747C23.7335 17.3821 26.066 19.6909 28.9075 19.6909C31.7489 19.6909 34.1238 17.3393 34.1238 14.4319V11.7383C34.1238 11.1397 34.5903 10.6694 35.184 10.6694C35.7777 10.6694 36.2442 11.1397 36.2442 11.7383V14.4319C36.2442 18.5365 32.9787 21.8287 28.9075 21.8287Z" fill="white"/>
<path opacity="0.1" d="M30.8161 42.5224C30.8161 44.4892 31.325 46.3704 32.2156 47.9952H46.4226L45.532 31.577C44.4718 31.2349 43.3691 31.0639 42.2241 31.0639C35.9051 31.0639 30.8161 36.1946 30.8161 42.5224Z" fill="#0C1E5B"/>
<path d="M48.1189 53.9809C54.3959 53.9809 59.4845 48.8508 59.4845 42.5224C59.4845 36.1941 54.3959 31.0639 48.1189 31.0639C41.8418 31.0639 36.7533 36.1941 36.7533 42.5224C36.7533 48.8508 41.8418 53.9809 48.1189 53.9809Z" fill="#FF6966"/>
<path d="M46.9313 46.9691C46.5921 46.9691 46.2952 46.8409 46.0407 46.5843L42.436 42.9501C41.9271 42.437 41.9271 41.6247 42.436 41.1544C42.9449 40.6413 43.7507 40.6413 44.2172 41.1544L46.9313 43.8907L52.0204 38.76C52.5293 38.247 53.3351 38.247 53.8016 38.76C54.3105 39.2731 54.3105 40.0855 53.8016 40.5558L47.8219 46.5843C47.5675 46.8409 47.2282 46.9691 46.9313 46.9691Z" fill="white"/>
</svg>
