<svg width="55" height="55" viewBox="0 0 55 55" fill="none" xmlns="http://www.w3.org/2000/svg">
<path d="M39.5311 27.5C40.8987 27.5 42.2102 28.0432 43.1771 29.0102C44.1441 29.9772 44.6874 31.2887 44.6874 32.6562V34.375C44.6874 41.1503 38.2936 48.125 27.4999 48.125C16.7061 48.125 10.3124 41.1503 10.3124 34.375V32.6562C10.3124 31.2887 10.8556 29.9772 11.8226 29.0102C12.7896 28.0432 14.1011 27.5 15.4686 27.5H39.5311ZM27.4999 5.15625C30.007 5.15625 32.4114 6.1522 34.1842 7.92501C35.9571 9.69781 36.953 12.1023 36.953 14.6094C36.953 17.1165 35.9571 19.5209 34.1842 21.2937C32.4114 23.0665 30.007 24.0625 27.4999 24.0625C24.9928 24.0625 22.5883 23.0665 20.8155 21.2937C19.0427 19.5209 18.0468 17.1165 18.0468 14.6094C18.0468 12.1023 19.0427 9.69781 20.8155 7.92501C22.5883 6.1522 24.9928 5.15625 27.4999 5.15625Z" fill="#00B074"/>
<path d="M37.0809 24.1413C37.4275 23.3338 38.5723 23.3338 38.9188 24.1413L41.8119 30.8827C41.9566 31.2199 42.2744 31.4507 42.6398 31.4842L49.9453 32.1525C50.8203 32.2325 51.1741 33.3213 50.5132 33.9004L44.9958 38.7351C44.7198 38.977 44.5984 39.3505 44.6796 39.7083L46.3015 46.8628C46.4958 47.7197 45.5696 48.3926 44.8146 47.9431L38.5115 44.1897C38.1963 44.0019 37.8035 44.0019 37.4882 44.1897L31.1852 47.9431C30.4302 48.3926 29.504 47.7197 29.6983 46.8628L31.3202 39.7083C31.4013 39.3505 31.28 38.977 31.004 38.7351L25.4866 33.9004C24.8257 33.3213 25.1794 32.2325 26.0545 32.1525L33.36 31.4842C33.7254 31.4507 34.0431 31.2199 34.1878 30.8827L37.0809 24.1413Z" fill="#F7C604"/>
</svg>
