<svg width="20" id="icon" height="21" viewBox="0 0 20 21" xmlns="http://www.w3.org/2000/svg">
<path d="M10.5417 2.25273C10.3908 2.12365 10.1987 2.05272 10 2.05273H4.16671C3.94569 2.05273 3.73373 2.14053 3.57745 2.29681C3.42117 2.45309 3.33337 2.66505 3.33337 2.88607V17.8861C3.33337 18.1071 3.42117 18.319 3.57745 18.4753C3.73373 18.6316 3.94569 18.7194 4.16671 18.7194H15.8334C16.0544 18.7194 16.2664 18.6316 16.4226 18.4753C16.5789 18.319 16.6667 18.1071 16.6667 17.8861V7.88607C16.6667 7.7657 16.6406 7.64676 16.5903 7.53743C16.5399 7.4281 16.4665 7.33097 16.375 7.25273L10.5417 2.25273ZM10.8334 4.6944L13.5834 7.05273H10.8334V4.6944ZM15 17.0527H5.00004V3.7194H9.16671V7.88607C9.16671 8.10708 9.25451 8.31904 9.41079 8.47532C9.56707 8.6316 9.77903 8.7194 10 8.7194H15V17.0527Z" />
</svg>
